<svg viewBox="0 0 1200 600" xmlns="http://www.w3.org/2000/svg"><path d="M456 512l-22-3-24-5h-6c-4 1-37-3-71-10l-26-5-11-2-25-6c-9-1-18-4-19-5l-2-1c-1 1-3 1-7-1l-13-3c-5 0-10-2-13-4-4-2-5-2-6-1l-2 1-7-3-7-2c-1-2-3-3-17-5l-11-3c2-1-8-5-25-12l2-1h6c3 1 3 1 2-1s-3-2-3-2l-2-1c-1-1-2-2-3-1-2 1-4 1-10-1-4-2-7-2-11-1h-3c1-2-4-6-10-7l-7-2c1-3 9-3 14 0h7c2-1 4 0 5 1 2 2 10 2 11 0 1-1 0-2-1-2-3 0-4-1-3-2h4l12 3 11 4h2c-1-1 0-2 1-2h-2c-3 0-3 0-2-1 1-2 0-2-2-1-5 0-4-2 0-4 3-1 3-1-5-4-5-1-9-3-9-4 1-1 0-1-2-1-2 1-4 0-4-1l-11-1c-7-1-9-1-9-3 1-1 0-2-1-2-5 0-9-1-8-2s0-1-2-1l-8 1c-2-1-4 0-6 1-2 2-2 2-3-1l-8-5c-5-1-5-1-6 5 0 3-1 4-3 2v-7l-11-3-4-3-4-3c-2 0-4-2-5-3 0-2 0-2 2 0l3 1c1-1 23 1 29 3l7 4c0 2 2 3 4 3s2 0 2-4c-1-7 1-9 7-6 5 2 5 2 1 2-8 0-5 7 4 9l11 4h10c1 2 2 2 2 1 1-4 15-2 21 1 6 4 13 5 25 4s12-4-2-7c-6-2-8-3-8-5l1-2c1 1 2 1 3-1l3-1h3l-7-3-9-3-9-2h-7c-5-1-6-2-7-4-1-5 0-6 3-4 2 2 4 3 16 5 5 0 13 2 16 4l9 2c3-1 3 0 2 2s-1 2 2 1c4-2 5-1 5 1-1 1 1 3 2 3 2 0 2 0 1-1l-2-2c0-2 10-1 11 1v1h-3c-2 2 7 3 11 1l5-2-1 1c-2 1-2 2-1 2l4-2c2-1 2-1 1 1s1 3 18 4l18 3-4-8v5l-2-3-6-3-6-2-17-6-16-5-2 1-2-1-2-3h-5c-4-2-5-2-7 1-3 5-15 5-27 0-5-3-10-4-11-4-1 1-3 0-4-1l-1-1c-1 3-4 1-3-3 0-3 0-3-7-4-3-1-5 0-4 1h-5l-8-3h-1c-1 1 1 2 3 3 3 2 2 2-3 2-4-1-6-1-5-3l1-1 2-1c0-2 0-2-5-1-6 2-16-2-15-5h-2c-1 2-3 1-8-2-4-2-7-5-7-6 1-1-8-1-11 1-2 1-2 2 0 6 2 3 2 4 0 2s-3-2-5-2c-2 2-6 2-7 1-2-1 8-9 10-9l2-1-2-1c-1 0-4 0-6-2-2-1-2-2-1-6 1-2 0-4-1-4l-3-1-6-3c-4-3-4-3-5-1l1 4c1 1 3 2 1 3h-2c-1-1-3-3-6-3-2 0-4-2-4-3l-2-4v-2c2-1 2-2 2-3-1-1 2-1 6 1 10 2 13 4 13 6s12 8 15 7c2-1 2-5 0-6l-6-6c-3-4-4-7-3-7 2 0 5 5 6 8 0 2 1 2 1 0l-1-4v-2c1-1 3 0 3 1l3 1 1-2c0-1-1-2-2-1l-2-1-4-2c-2 0-2-1-2-2 1-1-1-2-4-2l-1-3c-1-3 3-3 4-1l3 2 7 5c2 2 4 4 5 3 2-1 10 4 9 5l1 1 2-3-2-4-4-4c-3-4-4-5-7-3v-1c1-3-2-7-4-7s-3-1-3-3c0-4-2-6-5-5-2 0-2-1-2-4l-1-3c-1 1-1-1-1-3 1-3 2-4 4-3 1 2 3 0 4-1h4c4 4 8 3 7-2l2-4 2-4c0-3 0-3-2-2-1 2-1 2-1 0l-1-5h-3l-4 1 1-1 1-1 2-2c3 0 3 0 1-1l-5 1c-2 2-5 2-9 1l-19-4c-13-3-16-7-5-7l10 3c2 1 2 1 2-3 1-4-7-10-12-9-2 0-3 0-2-1s3-2 5-1c4 0 5-1 9-5 3-4 3-4 1-6-2 0-5 0-7 2l-7 2-3-1h4c6 0 3-6-4-7l-11-3-8-3c-1 1-1 1-2-1 0-2 1-2 6-2l4 1-3-3-5-4c0-1 18 1 20 3 1 1 2 0 2-1 0-2-1-3-3-3l-5-2c-1-2-6-3-6-1l-4 1c-4-1-5-3 0-3l2-1-1-1-2-1c1-1 0-1-3-1l-2-1c0-2 4-1 10 1 3 0 4 2 4 2-1 1 0 2 1 2l3-1c0-2 13 1 20 3 2 1 6 2 8 1 2 0 3 0 2-1v-3l-1-3-1 1h-3c-3-1-4 0-3 1 0 2 0 2-3 0l-5-4c-1-2-2-2-2 0l-6 1c-3 0-4-1-3-2s0-1-3-1l-4-1 2-2 1-3c-1-2-1-2 1-1s2-1 0-4v-1c1 1 2 1 2-1 0-3-5-7-8-5-1 1-2 1-3-1 0-2-1-2-3-1h-5c-1-2-1-2 1-2l3-1c-1-1 0-2 1-1 2 2 6 0 6-2 1-1 0-3-2-4-2-2-2-2 1-1 2 0 3-1 3-2-1-1 0-1 1-1 1 1 2 2 1 3 0 1 1 2 3 1h8c6 0 17-3 16-4l-2-3c-1 0-2 0-1-1l1-1c1 0 2-1 1-2l1-1 2 2c-1 1 14 3 16 1h11l4-2c1-1 0-2-3-2-3-1-5 0-6 1-1 2-7-1-6-4 0-2-10-3-14-1-2 2-9 0-10-2 0-1 0-2 2-2l5-1h7c3 1 4 0 4-1h1c2 1 3 1 2-2 0-2 1-3 2-2v-5h-2l-1-1c0-2-1-5-3-6l-1-3-1-2-1-1 3-1 2-1h2c0 1 0 2-2 2-2 1-2 2 0 3 3 3 4 3 5 0l2-2-2-3c-3-5-5-5-11 0-4 3-4 3-2 4l1 2c-1 0-1 1 1 1 2 2 1 2-1 2-3 0-5-6-3-8l1-3c-1-1 0-3 1-4 2-2 2-2 0-1-1 1-2 0-1-1 1-2 1-2-1-2l-2 3c1 1 0 2-1 1-2-1 0-9 2-11 3-2 11-4 11-1 0 1-1 2-3 2-1 0-2 0-2 2l1 4h5l2-2 3-2c1 1 5-1 7-3 3-2 5-4 6-2l3-2 3-1c3 0 13-7 12-9l3-1 3-1h4c5 1 9 0 6-2h-4c-4 1-4 1-5-2-1-2 0-2 6-1l4 1-1-4-2-4h3l9 3c1 1 3 1 3-1 1-1 2-2 3-1 2 1 2 0 2-1-2-3 3-5 5-3h3l-1-2 2-2 4-5 2-4c2-1 2-5 0-6l-3 5c-1 5-4 8-5 6-1-1 0-2 1-3l2-3c-1-1 1-3 3-5 3-1 4-4 5-5 0-2 4-3 5-1h4c3-1 3-1 0 1-2 3-2 4 1 4 4 1 4 1-2 5-3 3-6 5-7 4l-1 2-1 2c-2 0-2 1 0 2 1 1 3 1 7-1 3-2 9-3 12-3 8-1 20 0 19 2l-1 1c-1-1-2 0-1 1l-1 1-2 3 2 1c2-1 3 0 3 2s2 3 3 3c1-1 3 0 3 1s-3 2-7 1c-1-1-2 0-1 1 0 1 2 2 3 1l3 2c2 2 3 3 5 2l2-2c-1-1 0-1 1-1l1 2 1 2 1-2 3-1a830 830 0 0011 11l1-3c-1-2 0-3 4-2 4 0 6 1 6 2-1 2 0 2 1 0 1-1 2-1 2 1 0 3 0 3 3 1 3-3 5-3 4-1s2 3 6 3h34l2 1 3 1h14c14 1 21 0 21-1s2-2 4-1l4-1c-1-1 1-2 3-1 3 0 3 1 2 1-2 0-3 1-3 2h3l3-3c1-3 3-1 3 2 0 1 0 2 1 0h3c1 2 3 2 6 1l10 1h6c2-2 7 0 7 2 0 3 11 3 14 0 2-2 6-1 6 2 0 0 3 2 7 2 4 1 6 0 6-1-1-1 0-1 2-1 3 0 4 1 3 2l6 2 7-1c1-1 0-3-1-3v-5l3-2 7 1c5 1 5 0-2-1-6-2-6-2-3-2l7-1c0-1-1-2-5-2-5 1-5 0-5-2s0-3-2-2v-1l4-1c2 2 19 2 19 1 1-2-8-6-11-6-1-1-1-1 1-2 6-1 17 0 19 2 2 1 5-2 3-5-1-1-1-2 1-1s3 2 2 3c43 0 85 4 127 10l3-1 6-1-1-2-1-1c2-2 9-1 10 1l12 3c20 2 39 6 57 12h5l-4 3c-4 4-5 5-2 7h-22c-3 3-8 4-8 2 1-1 0-2-1-1-1 0-2 0-1-1 0-1-1-2-3-2-3 1-4 0-4-3-1-5-2-6-6-6l-7 1-4 2c-1-1-3 0-3 1l2 2c2 0 2 0 1 2-1 3 1 5 3 2 1-2 1-2 1 0l6 1c3 0 4 1 4 2l2 4c2 1 2 1 1 2l-3 3 2 1h7c4 1 5 0 5-1h2c3 3 14 0 13-4v-1c2 3 6 5 8 3l3-1c1 0 1 1-1 1l-2 2 2 1c1-1 1 0 1 1l1 1c1 0 2 0 1-1l1-2c1 1 2-1 3-2 0-2 2-3 3-3l1 3h-2c-2 0-2 0 0 5 0 4 1 4 7 3l5-1-1 3-2 1h-1c-1 1 1 2 3 2l4 2c0 2 2 3 5 3 3 1 4 1 3-1-2-2-2-3 2-3l4-3c0-2 3-6 5-5 2 0 2-1 2-3-1-3 0-3 7-1 4 1 8 2 10 1 4-1 4-1-1-1-7-1-9-1-9-3h10c7 1 10 2 9 4 0 1 1 2 3 2l10 3 11 4c3 0 4 1 3 2l-2 5-2 3v1c2 0 3 0 4-2 2-4 3 0 1 5-1 5-1 6 2 5l9 2c2 2 3 3 1 3-8-1 11 5 32 9l16 6 17 5 14 3c21 7 42 13 63 17l4 3-6-1-8-3h-5c-2 0-2 0 0 3 2 1 2 2 1 2s-2 1-1 2h3c1-1 2-1 4 1h1c-1-1 0-2 1-4h1l2 2c2 1 2 2 1 3s0 2 4 3l6 1h-5c-7 1-2 2 10 3l12 3c1 2 18 5 27 6l9 3v1l-1 2c1 4-2 4-11 0-3-1-5-2-4-3s0-2-1-3c-2 0-3 1-2 4 1 2 2 4 5 5l18 5v-9l4 1h1c-3 0-3 3-3 4v3l3 2c11 2 21 6 23 7 2 3 4 3 3 1-1-1 1-2 6-1s6 2 7 6l3 4v-4l-1-3c-1-2-1-2 1-1l4 5c1 4 2 4 4 2 2-1 5-2 7-1 4 0 5 1 8 11h-2l-1-2-5-5c-5-3-8-2-4 0 1 1 0 2-2 3h-5c0 2-1 3-2 2-2-2-3-2-2 1 2 8 2 8-1 4-2-3-3-4-4-2l1 1 2 2c0 3-7 4-8 2-1-1 1-1 3-1 4 1 4 0 2-2-3-3-6-4-5-1l-2-1c-4-2-6-2-9 0-6 2-7 2-4-1 2-1 2-2 0-1-1 0-2 0-1-1l-3-3-4 1c0 4-5 3-7 0-1-2-2-2-3-1h-3c0-1-1-2-2-1-1 0-1 2 1 4l2 4h4c3-1 4 0 5 1 0 1 2 2 5 2l7 1 10 3c8 1 10 4 4 3l-4 2v1h4c2 0 4 0 5-2 1-1 3-2 4-1l-1 1c-4 0-1 4 3 5 7 1 9 0 7-3v-3 1l2 2c2 0 3 1 3 2 1 1 1 1 0 0l-2 1c0 2 0 2 2 2l2 1h-5c-3-1-4-1-4 1l3 1c1-1 1 0 1 1l4 2 3 1c-3 3 3 6 7 5l5 1-3 1-4 1c-1 1-3 0-7-1l-5-1-3-2c-2-4-2-4-3-1-2 1-2 1-3-1h-2c-1 2-5 2-5-2 0-1-2-2-11-2h-20c-16-3-16-2-14-6 0-1 0-3-2-4-2-2-2-2 1-2l-5-2c-9-4-11-3-7 0 2 2 2 2-2 2-3-1-3-1-2-3s0-3-2-3c-3-1-5-2-3-6 1-3-2-3-6-1-3 2-3 2-1 2l3 2c1 1 0 1-1 1-2-1-3-1-2 1 0 3-1 3-5 3h-7c-1 1-1 0-1-1 0-2 1-3 2-2 2 0 3-2 3-5 0-2 0-5-1-3-1 1-2 2-3 1s-2 0-2 1h-8c-5-1-7-1-7 1 0 1-1 1-1-1-1-2-2-2-2 0s-2 3-6 2l-5-2-7-1c-9-1-12-3-11-5l-1-3h-3c-1 2-3 2-7 2h-6l-3-1c-2-3-3-2-4 1-2 3 0 3 3 5 3 0 3 0 0 1l-6-1c-2 0-2 0 0 3 4 4 6 5 7 2l1-3c1 1 2 0 2-2s1-3 2-2c1 2 0 8-1 7l-1 1 1 2 4 1c1 2 2 2 2 0l-1-3-1-3c0-3 3-3 6 0 1 2 1 5-1 3-1-1-2 1 0 4 1 2 2 2 6 0 5-1 5-1 5 1-1 2 0 2 1 1 3-1 4-1 6 1s2 2 3 1h5l9 2 7 3c3 2 8 2 11 0 1-1 3 0 5 2l5 2 2 1 3 1 2-3 2-2v3c-1 2 0 3 6 3 4 0 7 1 6 2l5 1 5 2 8 3 13 4 6 2c2-1 7 1 6 3-1 1-12 0-24-2h-4l8 2 7 2c0 1 2 2 3 1 2 0 3 1 3 2 0 2 0 2 2 0 1-2 2-2 1 0 0 1 1 2 5 1l8 2 9 4 8 2 6 3 6 1h7l3 1-2 1-2 1c0 1 1 2 4 1l4-1-1 1-2 2c1 2 1 2 10 5 2 0 4 2 3 2l2 1 7-1 4 1c1 1 2 2 1 3-1 3 0 4 9 6l23 7c5 1 7 1 5 2-2 2-9 2-26 1-2-1-3 0-3 1-1 1-6 0-7-2l-2-1c-1 1 4 8 6 8l5-2 4-2-4 3-3 4c1 2 1 2-1 1s-3-1-1 1c1 2 1 2-2 2-2 0-3-1-3-2h-8l-1 1c0 2 3 3 12 4 12 1 13 1 10-3-1-2-1-2 1-1 5 1 7 0 3-2-5-4-5-5 0-3l8 2c3 0 5 6 2 6v-3c1-3 0-2-6 1-5 4-5 4 0 6s6 2 5-1l1-2 1 3-7 2-5 1c0 1 1 2 2 1l3 5 2 4c3 0 3 1 3 2 0 2-1 2-3 2l-1 3-2 3-1-3c1-1 1-3-1-5l-2-1c0 1-1 1-1-1-1-2-2-2-2 0l1 3 2 2h-3l-2 1c-1 3-3 1-4-4 0-4-1-4-3-2-2 1-2 2 0 2s2 2 2 3c0 3 1 4 4 3l3 1c0 1 1 2 2 1l1 2c0 1 1 2 4 1l5 2 5 1 12 1c4 1 3 2-3 5-5 2-10 2-6 0 2-1 2-1-1-2l-4 1-1 2c-2-1-8 1-8 3s3 2 7 0c3-3 5-2 5 1l-2 1h-1l2 2c1-1 3 0 5 1 3 1 3 1 3-1s1-2 7-1l8 2c2 1-1 2-6 1h-7l5 2 11 3 3 1 1-2 2 2c-1 3-2 3-9 3h-7c0 1-1 2-3 1l-4 2c-1 2 2 5 8 5 4 0 4 0 0 1-4 2-5 3-1 3 6 1 13 5 14 7 0 2 0 2-1 1h-2l-12 1c-9-1-15 1-10 4 1 0 2 1 1 2l1 2c2 2 1 5-1 4l-11-1c-9 0-13-1-13-3h4c3 1 4 1 4-1l-6-1-13-1-5-1 2 4c3 4 4 11 0 7l-3-1c0 1-1 0 0 0l1-2 2-1c0-2-11-5-17-6l-13 1c0 1-1 1-1-1-1-2-2-1-3 1l-4 3v-2c1-1 0-2-1-2-1-1-3 0-3 1h-1l-2 1-2 1c-1-1-3 0-4 1-2 1-3 3-1 3 1-1 1 1 1 3l-1 2c-1-3-3-5-5-5v1c0 2 0 2-2 0l-2-1-2-1c-4-3-4-2 0 2 1 2 1 2-4 1h-5l2 2c2 0 2 1 2 2l1 2c2 1 3 0 3-1l4-2c3 1 4 1 3 3l1 3h1c-1-1 0-2 1-3l2 2c1 4 1 4 2-1l5-4 4-2 2-2c2 0 2 0 1 2l5 3c4 1 4 2 3 3l-3-1h-3v2c3 3 3 5 0 5h-10l2 2c3 0 6 2 7 3l4 3c3 2 3 2-1 0-4-1-5 0-5 1-1 1-1 1-1-1-1-3-1-3-3 0-1 3 0 3 2 4 4 0 3 2-1 2-3 0-4-1-4-2l-1-3v4c1 3 2 4 5 5 2 0 3 0 2 1l-4 1c0 1-2 2-5 2s-3 0-1-1c3-2-9-2-13 0-6 1-10-1-8-3 1-2 0-3-2-2-2 0-3 1-3 2l-3 2-3-1c0-2 0-2-2 0l-4 1c-1-1-3-1-3 1-1 3-1 3-10 2l-10 1-3-1c1-1 0-2-2-3-3-1-4 0-4 2h-2c-1-2-4-3-4-1h-6l-5 1c0 2 2 2 7 3 11 1 12 1 12 4h-2l-5 1-4 1-6-4c-7-1-8-2-5-4v-2l-2 1c0 1-1 2-2 1-2 0-2 1-2 2 1 1-1 1-3 1h-7c-3 0-4 0-3-2l6-4c4 0 4 0 0 0-6-1-7-1-9 4-3 6-4 6-5 2l-4-3c-2 0-3-1-2-3s1-2-2-2-4 2-1 4h-3c-3 0-5-1-5-3 0-1 2-2 4-1l2-2-12-3c-9-2-10-1-10 2-1 4-4 5-15 4-8-1-11-1-11 1-1 2-1 2 1 0 1-2 2-2 1 0 0 2 1 2 2 1 2-1 4-1 5 1s6 2 4-1h2l2 3c-1 2 0 3 1 3 1 2 1 0 1-2s0-3 2-3l3 2-1 2c-1-1-2 0-2 1l2 3c2 0 3-1 3-3s1-2 2-2l5-1 2 1c0 1 0 2-1 1-1 0-2 0-2 3 0 1 0 2 1 1 0 0 2 0 3 2h1c-1-2 2-3 8-1l7-1h6l4 3 2 1v2l3-2c2-1 2-1 2 1 0 1 2 2 5 2l3 1-6 1c-7-1-8 0-5 3l5 1 4-1c1 1-1 2-3 2-5 2-3 5 2 5 3 1 4 1 3 3 0 2-1 2-2 2l-1-2-1-1c-1-1-1 0-2 1l-6 1-10-2c-3 0-3 0-2 2l19 4 15 4-3 1-3 1h-2c-2-2-2-2-2 0 1 2 0 3-1 3l-1-3c0-2-1-2-4-2-4 0-6 1-6 2l-2 1-1-1c2-3-2-4-5-1-2 2-2 2-1-1 1-2 1-2-4-2-4 0-6 0-5-2 0-1 0-2 1-1 1 0 2-1 2-4l-2-1-2-1h-9c-2 0-3 0-2 1l-1 1-2 1c0 1 1 2 3 1s4-1 5 1l-3 2h-4l-4-1-6-2c-3-1-4-1-3 1 2 2 1 2-2 2-2 0-3 0-2-2s0-2-4-2l-6 1c0 1-1 1-1-1-1-2-8-2-8 1h-2l-6-2-4-1-2-2-1 2-4 2c-4 0-5 0-4-3s1-3-3-4c-4 0-5 1-3 4l1 2c-1 1-2 1-3-1h-2c-1 2 3 4 8 4 5 1 5 1 1 2-6 2-16 2-16-1v-1h-2l-1 1c-1 1 1 4 4 5 5 2 4 4-3 3-4 0-5 0-5 2l-2 4c-1 1-1 1 1 1l4 1-1 1-4 1-5-3v-2l4-2c1-3-3-5-5-4s-4-1-7-6c-5-5-6-6-7-3-2 2-2 3 3 5l3 3c1 1-15-1-17-3-1 0-3 0-1 2 0 2 0 2-3 2h-4c0 2 1 2 2 2l3 2c4 4 8 3 7 0 0-3 0-3 4-3 3 1 5 1 4 2-2 2 1 2 3 0 2-1 2 0 1 2 0 3 0 4 2 5 4 1 4 5 0 5l-6-5-4-3-11 2c-6 0-8 0-9-2-2-2-22-5-22-3l-12-1h-8c3 1 3 2-1 1-4 0-5-2-2-4 1-1-1-2-7-2l-9-2h-7c-3 1-4 0-3-2l-1-2-2 2h-3l-9-3-10-2h-5c-3 2-31-3-31-4 1-1 0-2-1-3s0-1 3-1l5 2c1 3 9 3 26 2h6c2 1 3 0 1-2l-5-3c-2 0-4-3-2-3l26 1 8-1c1-1 4-1 5 1h2c-1-1 0-2 1-2 3 0 4-2 2-4-1 0-2-2-1-3 0-1 1-2 7 0l7 1-1 2-2 2c6 2 6 2 6 0-1-3 0-3 5-4 4 0 6-1 6-2 0-2-8-5-8-2 0 1-3 2-6 1-3 0-5-1-5-3 1-4 0-5-6-6l-7 1c-2 3-14-1-17-5-2-3-2-4 1-4 2-1 9 0 16 1 11 2 13 2 12 0 0-1 1-2 3-2s2 1 2 3c-2 2 5 4 8 1l-2-1c-1 1-3 0-3-1l1-1 4-1c1-1-1-2-3-2l-9-2h-7c-1 2-2 2-2 1l-4-2c-3 1-4 2-1 4 1 0 1 1-1 1l-3-2c0-2-1-2-1-1l-3 1c-4-2-18-1-18 0l2 2c2 0 4 1 2 2l3 2c3 0 1 4-4 4-6 1-17-2-18-4 0-1-1-2-3-2-1 0-3-1-3-3s-1-2-1 1l-4 4v-1c3-3 0-8-4-8l-4 1 3 1c2 0 3 1 3 3-1 2-3 3-3 1l-1-2c-4 0-2 4 2 5 8 3 4 4-5 2l-8 1 2 1 1 2h-7c-7-1-8-1-7-4 0-4 3-5 5-3h7c4-1 3-2-5-3l-31-3c-2 2 1 3 10 4 11 2 14 4 9 9l-3 3 8 1c13 1 4 4-12 4l-2 1-2 1-1-2c2-3-2-5-4-3h-2c1-1 1-1-1-1l-2 3h-2c-2-3-5-3-6-2-3 2-9 0-9-2-1-1 4-6 5-5h10l2-1-13-2-12-1-2 1v-1l-3-1c-3 0-4 1-3 3 1 1 3 2 4 1l2 1c0 1 1 2 3 2s4 2 5 3l-7 4-8-2c-1-1-12-3-11-1l-15-2c-2-2-3-2-6 0h-5c0-2-4-2-6 0v-1c0-3-2-4-5-1-2 1-2 1-1-1 2-1 1-2-2-1h-5l-1 3c-1 1-1 2-3 0l-1-4c1-1 1-2-2-3-5 0-9 1-8 3 1 1-5 0-6-2-1-1-6 0-5 2s-7 4-11 2l-1-2-2-2-2 1c-1 1-2 2-3 1v-1c2-1 1-1-3-2l-11-3-4-2c-2 0-3 0-2 2s0 2-7 1h-10l-6 2c-4 0-4 0 1 1s6 1 4 4c-3 1-3 2 0 1l4-1v-1c-1-1 0-1 1-1 2 0 3 1 2 3v2c1-2 2-2 3 1l1 1c1-2 2-1 6 1 5 4 8 3 7-3l1-2 2 4c1 4 4 5 4 3l1-2 2 4c-1 2-7 2-22 1-6-1-9-1-11 1-4 4-4 5 0 6 3 0 3 0 1-1-3-1-3-1 1-3 5-1 6 0 5 3-2 3-1 3 3 2 4-2 6-2 8 0 2 1 3 2 6 0 2-1 3-1 3 1-1 3 1 3 4 1l3 1c2 1 2 1-1 1l-4 1 6 2c3 1 5 0 5-1 0-2 2-2 6-1s6 1 7-1c2-2 3-2 4 0l1 1 4-2 3 2c-1 1 0 1 1 1 2-1 2 0 1 1-1 2-1 3 2 3s4-2 1-3h9l11-1h2l4 2h5l2-2v2l2 4c3 3 1 4-11 2l-69-6zm-31-12l2-5c0-1-10-2-11 0h-22c1 1 0 2-1 2-1 1-1 1 2 1h10v1h11c6 0 7 1 5 2v2l4-3zm-122-16l-6-1c-1 1 0 1 3 1h3zm92-2c0-1 1-3 2-2l1-3 1-2 2-2 1-2v4c-1 4-1 4 6 5h8l3-3c1 0 1-1-2-2-2-1-3-2-1-2h5c3 3 8 3 8 1 1-2-12-4-29-5-1 0-2 1-1 2l-4-1c-4-3-7-3-3 0l1 2h-18l-9 1c-1 2-1 1 7 3h8c0-2 6 2 8 6 1 5 5 5 6 0zm15-5l4-1c2 2 1 3-2 2l-2-1zm336 53l-1-2-2 1 2 1h1zm13-4c0-2-1-3-3-3-2-2-3 0-3 1l2 1c1-1 2 0 2 1v3l2-3zm-92-11l-4-1c-2 0-1 1 1 1h3zm-501-76l-2-2-1 2c-1 1 0 1 1 1 1 1 2 0 2-1zm319 37l-1-2c-2 0-3 2-4 3l1 1 4-2zm242 30v-1l-5-1h-5c-1 2-1 2 1 2l3 1 3 1 3-2zm35 5l-1-2c-1 1-2 2-1 3 1 2 2 2 2-1zm9 1c2-2 2-2 0-1l-5 2c-3 0-3 0 0 1l5-2zm-40-5v-2l-2 1v2l2-1zm11 0c1-2 0-2-3-1-5 2-5 2-2 3l5-2zm15 3c-1-1-8-2-9-1l5 1h4zm-246-33l-1-2-2 1 2 2 1-1zm302 36h2l2-2c0-2-1-2-3-1-2 2-2 2-4-1l-2-2-1 1c1 1 0 1-1 1l-2-2c0-2-1-2-4-1-6 2-5 5 0 6l6 1c1 2 4 2 7 0zm13 1v-3c0-2 0-2-2-1h-3l-1 1c0 1 1 2 3 2 3 0 3 1 1 2s-2 1 0 1l2-2zm-345-42l-1-1h-2l2 2 1-1zm43 5l-2-1h-3l2 2 3-1zm35 4l2-2c2 0 3-1 2-2h-3c-3 1-4 5-2 5 1 0 2 0 1-1zm48 4v-2l-2 2c-1 4 1 3 2 0zm13 2l-4-3-5 1c0 1 0 2 1 1l3 1c3 3 5 3 5 0zm-240-30c0-2-4-2-5-1s0 2 2 2l3-1zm9 1c0-2-2-3-4-3l-2 2c1 2 5 3 6 1zm9 1l-2-2c-2-2-5-3-6-2-2 1 1 5 4 4h4zm41 6c2 0 2-2 2-3 1-3 2-4 5-4 2 0 3-1 3-2-1-2 0-3 2-3 7 1 12 0 13-1l2-1v3c0 2 0 2-2 1-1 0-2 0-1 1 1 2-3 3-8 2l-4 1-4 3c-4 0-4 0 0 2l1 1c-1-3 1-2 3 0l1 2 6-5c6-4 8-4 9-2h9c-3 3 1 7 4 7l39 1-5-1c0-2 10-2 11 0h4c4-3 2-5-5-5-5 0-6 0-6-4 0-2 1-2 3-1l6-1c3-1 3-1 1-1-2 1-3 0-4-1h-8c-1 1-3 0-4-1s-3-2-6-1c-5 2-7 4-4 4l1 2c-2 2-9 0-9-2s1-2 3-1c1 0 2 0 1-1-1-2-13-1-15 1h-1l-5 1c-8 4-10 3-8-2l2-4-15-2-67-5 2 1 21 4 16 1c-3-1-3-1 3-1 5 1 6 1 5 2-2 1-2 1 2 2 5 1 5 1 1 1-3 0-4 1-2 2 1 1 1 1-3 1-2 0-4 0-4 2l1 2c1 0 2-1 1-2 0-1 0-1 0 0l2 2v4c0 2 3 3 5 1zm15-5l3 2h-3c-1 0-2-2 0-2zm41 5l5-1 7 2h-7l-5-1zm226 33c0-1-1-2-3-1l-2 2 2 2 3-3zm-307-38l-4-2-3 1 3 3 4-2zm431 53l-1-1h-2l2 2 1-1zm-91-14c-3-2-5-3-5-1-1 1 2 2 4 2 3 0 3 0 1-1zm-363-47c2-1 2-1-1-1-2-1-4 0-4 1s2 2 5 0zm18 1l-3 1c-2 1-2 1 0 1l3-2zm129 17l-5-1h-4l4 2 5-1zm8 2c2-1 1-2-2-2l-5 1c0 2 3 2 7 1zm38 4c2 0 2 0 2-2v-4l-3-1c-4 1-2-1 2-3l5 1c1 1 2-1 2-3l3-8c1-1 1-2-1-3l-3-3-1-1c-2 1-2 2-1 3 2 3-4 8-7 8-1 0-1-2 2-3l3-3c-1-2-8 4-8 6v3c-1 0-2-1-2-4 1-2 0-2-2-2-1 0-2 1-2 3s-1 2-5-1c-3-1-6-2-8-1l-2-2-4-2c-2 0-2 0 0 0l3 4c0 2 0 4-2 2l-1-2v-1l-2 3-2 4-1-4c1-2 1-2-1-1s-3 1-2-1c0-3-1-3-4 0l-6 5c-4-1-3 2 1 3 2 0 3-1 3-2h4l4 4 2 1 2 2c1 1 1 0 2-2v-5l4 6c3 5 3 5 14 5l12 1zm-26-8c-2-2-1-4 2-4l2 3c-1 2-2 2-4 1zm80 15l-4-1c-1 1-1 1 2 1h2zm109 14l-1-2-2 1 1 2 2-1zm-321-45h-3c-2 0-1 1 0 1l3-1zm164 18l-2-1h-2l4 1zm-213-29l-3-1c-2-1-3 0-2 1h5zm10 2l-1-2-2 1c-1 1-1 2 1 2l2-1zm534 64l-3-1c-2 0-5-1-7-3s-2-2-4-1c-1 1 0 2 2 3 2 0 3 1 3 2h9zm-291-37l-6-3c-1 1 6 5 8 6 1 0 1-1-2-3zm-93-13l-1-3-2 2 2 3 1-2zm64 9l-3-1-4 1 4 1 3-1zm77 8c1-1 2-2 1-3s-6 1-7 3 4 2 6 0zm226 29c1-1 0-2-3-2-1 0-2 1-1 2l2 1 2-1zm-9-3c-1-1-2-2-4 0-1 1-1 1 2 2 3 0 3 0 2-2zm-293-40l-4-1 2 1h2zm32-2l1-2c-1-4-3-3-4 3 0 4 0 5 1 3l2-4zm169 25c0-1-2-2-8-2l-9-2c-1-2-11-1-11 0l13 3 13 2c2 2 2 2 2-1zm-605-79c2-1 0-1-1-1-1-1-3 0-3 1h-2c-1-1-2 0-3 1 0 2 2 2 6 2l7 2c0 2-4-5-4-5zm431 54c1-3 0-4-1-1-2 1-3 3-2 5 2 2 3 1 3-4zm144 21l-4-2c-3-1-3-1 1-2l8 1c1 1 6 0 10-1 3-2 6-2 6-1l-2 2 8 2h5l4-1h7v3c1 2 2 2 5 0 2-2 5-2 6-2h7c1 2 2 2 2 1l3-1c5 0 6-2 3-4h1l3 1c1 3 24 3 24 0 0-1-2-2-5-2h-8c-4 0-5 0-3-1s1-2-2-1c-2 0-3-1-3-2 1-3-5-3-7-1s-2 2-4-1c-2-2-3-3-5-2s-2 1 0 1l3 2c0 1-1 2-3 2-1-1-2 0-2 1l-2 1v-4c1-4 1-4-2-5l-2 1-2 1-2-2h-2c-1 0-1 1 1 2 3 3-2 6-10 5l-7-1h-15l-5-1h-14l4-4c4-6 9-7 11-4 2 4 5 5 5 2 0-2 1-2 2 1 0 1 2 2 5 2s5 1 5 2l1 1c1 0 2-1 1-2 0-1 0-2 1-1l2 1c0 1 2 2 6 2 6 1 7-1 3-3l-3 1h-2c-1 0-2-2-1-3l-2-4a410 410 0 00-51-5c-5 0-7 1-3 4 2 2 3 1 5 0 2-3 6-2 9 4 2 3 2 4 1 4l-2 2-1 2-1-1-3-1c-4 2-16 0-17-2l-1 2 1 5 1-2h2c1 1 4 2 6 1 4-2 5 0 3 3 0 1-2 2-5 1h-4l14 3h12zm-13-3c-2-2-1-2 1-1l3 1c-2 2-1 2-4 0zm9-17l1-2 1 3-1 2-1-3zm-189-8l-3-3c-3 0-3 0-1-1 3 0 5-2 3-3-3 0-6 2-6 4-1 2 0 3 1 3h1c0 1 1 2 3 2l2-2zm-23-5l8-2 6-1-4-2c-6-2-20 1-19 3l2 2c1 0 2 0 2 2h1l4-2zm10 3c-3-1-9-2-9 0l5 1c4 0 5 0 4-1zm129 14v-3l-2-2h-3c-1-3-9-4-11-3-1 2-2 1-1-1 2-2 1-2 0-1l-7 1c-5-1-6 0-3 4 2 4 3 4 5 1 1-2 4-2 7-2 4 0 6 1 6 5 2 3 3 4 6 3 2 0 3-1 3-2zm-154-20c0-2 0-1-1 0l1 3v-3zm44 3l-3-1c-2 1-2 1-1 4 2 2 2 2 3 0l1-3zm31 7c1-1 0-2-1-2l-3 1c0 2 1 3 2 3l2-2zm-4-5h-2l-2 4 2-1 2-3zm109 17l-1-1-3 1 2 2 2-2zm-123-18l-3-3-3 1h-4c-1 1 0 2 1 3 3 1 8 1 9-1zm6 1v-1c0-3-3-2-3 1 0 2 0 2 1 1l2-1zm-424-52l-3-1c-1 1-1 1 1 1h2zm455 55h4l3-1c0-2 2-2 5-2h14l2 1c2-1 7 0 13 1 9 1 10 1 10-2 2-2 3-3 4-2 3 0 3 0 1 1-3 1-2 2 0 4s3 2 6 0c3-1 4-2 3-3-2-1-2-1 0-1l2-2-10-1a1433 1433 0 01-46-6l4-2h-5l-6-1c-1-2-7 0-6 2 1 1 0 2-1 3l-1-1v-3l-2 1v4l5 2c7 2 7 5 2 6-3 0-5 1-4 2 1 2 3 2 3 0zm15-6l2-1 1 2-2 1-1-2zm21 1l5-1 4 1-4 1-5-1zm212 31c-1-3-4-2-4 1s0 3 2 1l2-2zm-701-85l-1-1-2 1 1 2 2-2zm8 1l-2-1v1l1 2 1-2zm698 86l-1-2-1 2 1 2 1-2zm-288-37l-2-1v1l1 2 1-2zm137 12l-3-1c-2 0-3 0-2-2 2-2-1-3-5 0-2 2-6 2-4 0v-2l-2 2c-1 3 3 5 5 3 1-1 7 1 6 2v3c0 3 5-3 5-5zm3 5l-2-2v2l1 1 1-1zm137 18l-3-1c-1 1-1 1 1 1h2zm-257-38c0-3-2-5-3-5-2 0-8 3-6 4 1 0 2 0 1 1 0 3 0 3 5 4 4 0 4 0 3-4zm96 14l-2-2c-2 0-2 0 0-2l2-2c-1-1-3 0-4 1-3 3-3 3-5 1l-2-4 2 1c2 3 4 2 4 0s-1-3-3-3c-6 1-6 6 0 9 5 3 8 3 8 1zm30 2l-1-1-2 1c-1 1 0 1 1 2l2-2zm-24-10v-2l-2 2v1l2-1zm5 1l-1-1h-1c-1 1 0 2 1 2l1-1zm-543-69c1 1 2 1 1-1 0-3-5-4-5 0v2c1-1 2-2 4-1zm451 56l-2-3-1 3 1 1 2-1zm-15-6l-6-2-6 1c0 1 2 2 6 2l6-1zm421 53l-4-1 2 1h2zm0-4l-3-3-1 1c1 1 0 1-1 1-3-2-1-5 3-4s2-2-1-3-4 0-6 3c-2 4-3 5-5 4-1-1-1-1 0 0 2 3 14 3 14 1zm-353-48c-2-1-3-2-5-1-3 0-2 2 2 3 4 2 4 0 3-2zm9 2l-1-1-1 1 1 3 1-3zm330 37l-4 1h-5c-2-1-2-1 0 1 1 2 2 2 5 1l4-3zm-26-3l2-1 3-3c1-4-4-3-7 2-2 4-2 4 0 4l2-2zm14 0l-2-2-5 1c-1 2 5 2 7 1zm-272-40c4-4 4-5 0-2l-4 3c0 2 2 1 4-1zm308 34c0-3-3-4-3-1 0 2-1 2-1 1-1-3-3-3-4 0-1 2 0 2 3 4 4 0 5 0 5-4zM177 348c1 1 2 0 2-1-1-1 5 0 9 2l2-1-1-2c-1 1-2 0-1-1l3-2 3-1c0-2 0-2-2-1-4 1-8 0-7-3l-1-2-2 1c0 3-6-1-7-4-1-1-2 0-2 2v6c1 2 0 2-2 2l-4-3c0-5-2-5-2 0v5c-1 1 1 2 4 2 2 1 2 1 1 2-1 2 0 2 1 1l6-2zm4-4c-3-1-3-1 1-1l4 2c0 2-1 2-5-1zm837 107l-1-1-2 1 1 1c1 1 2 0 2-1zM39 329l-1-2v2c1 3 2 2 1 0zm123 11c-3-6-3-7 1-8 2 0 3-1 2-2-1 0-3 0-5 2l-3 2-8-3c-8-1-8-1-4 1l10 4c3 0 4 1 4 4l2 4c2 0 3 0 1-4zm861 105v-2l-2 2v2l2-2zM87 329l-2-2-2-1-2-2-1 2-1 3 3 1 5-1zm117 14h-3c-3 2-3 2 0 1l3-1zM70 324c0-2-3-2-4 0s0 2 1 2l3-2zm1044 116h6c9-2 1-6-11-5-4 1-4 1-2 3 3 3 3 3 7 2zm-29-11c0-1-4-2-10-2l-1 1c0 1 2 2 5 2l6-1zm5-2c0-2-1-1-1 0v2l1-2zm7 2c-2-3-5-3-5 0l4 3c4 0 4 0 1-3zm-31-12c0-1-1-2-4-2-8 1-9 3-2 3 4 1 6 0 6-1zm-15-3l-2-1-2 1c-1 1 0 1 2 1l2-1zM75 294c0 1 2 2 3 1 1 0-3-4-3-1zm969 119l-5-1c-1 1 0 1 2 1h3zm52 6c1-1-1-2-6-2h-6c7 3 9 3 12 2zM114 285c4-1 4-5 1-5l-3-4c0-3-6-4-6-1l-2 1v-2l-5-3-4-2c1-1 0-2-2-2l-6-1h-3l1 2 4 3 8 6 11 6c4 3 3 2 6 2zm-3-2l2-1 2 1h-4zm-19-11h3c1 1 0 1-2 1s-2-1-1-1zm963 110l-9-1-2 2 11-1zm34 5l-4-3c-1-2 0-2 4 0l3 3 2 2-1-4c-2-2-3-4-2-5l-3-2h-14c-1 1 0 1 2 1 3-1 7 2 6 6 0 3 3 4 7 3 2 0 2 0 0-1zm-24-2c0-3-1-6-3-5s-2 5 1 5h2zm8-3v-2l-2 1v2l2-1zm24 0l-2-2c-2 0-3 1-1 3 1 2 3 2 3-1zM68 254c-1-2 3-3 10-1 3 1 4 0 5-1l-2-1-1-5c-1-2 0-3 1-3 2 1 3 0 3-1l-2-1c-1 1-3 0-4-2l-6-3c-1 0-4-1-5-3l1 4c2 5 2 6 0 5h-3l-9-1-7-2 1 4c1 2 2 4 1 6l6 1c3 0 7 1 8 3 3 2 4 3 3 1zm1025 121l-2-2c0-2-3-3-15-5-7 0-13-2-12-2l-1-2-2 2-8-1c-6-1-7-1-5 1l17 5 12 2 8 2h8zm-50-10c0-1-1-2-3-2-3 0-3 0-1 2l4 1v-1zM102 250l-2-3-1-3c0-2 0-2-1 0s-3 3-5 2l-4 1 6 4 7-1zm913 110h1l11 3h7l-15-4c-10-2-13-2-12 0 2 2 6 2 8 1zm89 10c0-3-1-3-2-3-2 1-2 4 1 5 1 0 2-1 1-2zm-13-4l4 1-7-6-4 3c-2 3-2 3 1 2h6zm-26-4l-2-2-1 1 1 2 2-1zM65 239l-1-4c-1-4-2-4-5-3s-3 1-2-2v-4l-1 2c0 1 0 2-2 3l-3 2c0 2 1 2 2 2 1-1 1 0 1 1l2 1h1l4 2h4zm1017 116c1-1 0-2-1-2l-3 1 1 2 3-1zm-14-6l-2-2c-2-1-2 0-1 2 2 3 3 3 3 0zm-24-3c3 0 2-2-2-3l-4 1h-3l4 2h5zM54 222c0-2-1-3-4-2-2 0-2 1 0 2 2 2 4 2 4 0zm965 115c1-3 0-3-1-2-2 3-3 6-1 6 1 0 2-1 2-4zm21 1l-6-2c-5-1-5-1-2 1 2 4 9 5 8 1zm33 6l-1-2-2 1 2 1h1zm17-2l-1-2-2 2 1 1 2-1zM48 213c0-1-1-2-3-1l-1-1c0-2-1-3-3-3l-3 1 2 1 2 2 2 2 4-1zm11 1c2-2 11-4 15-3l3 2 1 3 1-1h2v-2c-1-1-3-3-6-3l-4-2-4-2c-6-1-8-1-8 1l2 1v1c-1 1-2 2-4 1-1-1-4 0-5 1-3 1-3 2-1 2l4-1c2-1 2-1 1 1s1 5 3 1zm29 1c1-1 0-1-1-1-3 1-4 2-2 2l3-1zm960 112c-5-2-9-3-5-1l5 2c3 1 3 0 0-1zM103 210c1-1 0-6-2-6s-2 0 0 2H91c-2-3-7-3-7 0-1 2 16 6 19 4zm900 106v3h15l-4-1-9-2c-3-2-4-2-5 0-3 3-2 4 1 2l2-2zm31 7c-5-2-14-3-13-2 0 1 3 2 8 2h5zm9-5c0-3 0-4-2-4l-3 2-2 2-2-2c0-1-2-3-5-3-6-1-7-1-7 2s0 4 12 5c8 1 8 1 9-2zm31 5l-10-2c-1 1 2 2 4 3 5 1 7 1 6-1zm-17-3c1-1-6-4-7-4l-3 1c-2 0-3 1-2 2s12 3 12 1zm-37-5h-3l1 1 2-1zM39 192v-1c-1 1-2 0-3-1l-2-1c-2-1 1 4 3 4l2-1zm21-4l-1-4-1 1-5 3c-3 0-3 0 0 1 4 2 9 2 7-1zm18 2c1-4 1-4 11-1l12 1c3-2 13-4 12-1l1 1c2 0 3-1 1-5-2-1-1-2 1-1 3 0 3 1 2 6 0 2 0 4 1 3l1-2c-1-1 0-2 2-5 5-3 11-12 7-10l-2 1h-2c-2 2-5 2-4 0 1-1 1-2-1-2-3 0-3 4 0 5h4v2c-2 3-2 3-5 0-1-2-3-2-3-2l-6 1c-6-1-6 0-6 2 0 3 0 3-1 0l-2-2-11 1c-10-1-18 1-18 4l-2 3c-3 0-3 0-1 1l4-1c2-4 5-1 2 2v3c3 0 3-2 3-4zm9 3l-2-1c-2-1-4 0-4 1l2 1c2 1 4 0 4-1zm-38-5c0-4-5-5-10-5-4 0-5 0-3-1s2-1 0-2c-2 0-3 1-3 3 0 3 1 3 7 5h9zm47 6l-1-2c-1-1-2 0-2 1l1 1h2zm-29-17h2c0-2-3-4-7-4-2 0-2 1-1 7l2-1c1-2 2-2 4-2zm-19-3c1-1-3-1-7-2-5-1-8 0-8 1l4 1c4 0 5 0 4 1-1 2-1 2 1 1l6-2zm-17-3c1-1 0-2-1-1l-1 2c1 2 2 2 2-1zm42 3c-2-2-2-2-1 0l1 3v-3zm43 2h-1l-3 1c-2 0-2-1-1-2 3-2 0-6-3-5-2 1-3 0-3-2 0-1 1-2 3-1 6 3 9 3 9 2l-2-2c-1-1 0-1 2-1 3 0 3 1 2 3-1 3-1 3 12 4l15-1c1-1 1-1-2-2-3 0-3 0 0-1l7-1h5l-6-2c-4 0-7 0-6-1l5-1 9 1c4 0 5 0 5-2-1-2 1-2 9-1 10 1 8-2-2-4-5 0-7-1-7-3l-3-2-2 1-3 1-4-2c0-2-1-2-4-1h-7c-4 0-4 0 0-1s4-1-1-1l-10-2c-3-2-3-1-3 0 1 3-3 4-7 2-2-2-3-2-5-1h-11l-8-1-1 3c-1 2-1 2 1 1 1-1 3-1 6 1 4 4 4 4 4 1 0-1 1-2 5-1 4 0 5 2 1 5h-6l-6 1c-2 2-3 2-3 0-1-2-9-1-11 2 0 2-2 2-4 2h-3l1 1 2 2c-1 3 3 6 6 6 2 0 3 1 3 2-1 1 3 2 12 3 12 2 14 1 14-1zm781 98l-1-1h-2l2 2 1-1zM62 164c6 0 11-1 10-3 0-1 0-2 2-2l4-1c-1-1-11-1-11 1h-7c-1 0-1 1 2 2l3 1h-4c-3 0-4 0-4 3s0 3 1 1c0-2 2-2 4-2zm13 4l-1-1c-3-2-11-2-14 0l6 1h9zm796 95l-2-2c-1 0-2 0-1 1l2 2 1-1zm11 0l-2-2-1 1c1 1 0 2-1 2s-1 1 1 1l3-2zm19 3c-1-1-1-1 1-1h4c0-2-5-2-7-1v3c2 1 2 1 2-1zM83 160l-1-1c-1-1-2 0-2 1l1 1c1 1 2 0 2-1zm918 109l-2-4c-2-1-3 0-3 3s1 5 3 4l2-3zm10 4c1-1 0-1-1-1v-2h-2l-4 2c0 2 5 2 7 1zm31 1c0-3-2-5-3-3l-1 3c-1 2 0 2 2 3 2 0 3-1 2-3zM200 171c3-1-9-3-17-2-3 1-3 1 5 2h12zm828 100l-2-2c-3 0-4-1-4-2l-2-4c-2-3-2-3-2 0l3 7c5 4 8 4 7 1zm-163-19h-3c-2 0-1 0 1 1 2 0 3 0 2-1zm6-8l-2-3-1 1h-2c-1-2-1-2-12-4l-10-1c-6 1-2 3 5 4l9 1c1 2 12 3 13 2zm111 11c0-3 0-3-2-2l-1 4c1 3 2 3 3-2zm19 5l-2-2v2l1 1 1-1zm-79-10l-2-3-1 2c-1 1 0 1 1 1h2zm55 4c1-2-4-2-5 0-1 1-1 1 0 0l2 1c0 1 1 2 2 1l1-2zm10 1l-2-1-2 2c0 1 1 2 2 1l2-2zM85 143l-1-1-2 2 1 2c1 0 2-1 2-3zm39 6v-2l-2 2v1l2-1zm830 102v-1l-2 1v2l2-2zm58 7l-1-1-1 1v2l2-2zM95 143l-2-2v3c2 2 3 2 2-1zm-16-5c1-1 0-2-2-1-2 0-3 1-2 2 2 2 4 2 4-1zm55 5l-1-3-1 3c-1 4 2 4 2 0zm12 1c-2 0-3-2-5-3-4-4-5-3-5 2 1 4 1 4 7 3 2 0 4-1 3-2zm837 105c0-2-1-3-3-3s-2 0 0 1c2 4 2 4 3 2zM106 139l-2-1c-4 0-5 1-1 2l3-1zm12 0l2-4c-1-2 1-2 5 1 3 3 3 3 4 0l-1-3-4-1c-3-1-4-1-6 1l-4 3c-1-1-1-1 1-1 3-1 2-3-1-3l-2 2-2 1c-2 0 3 5 5 5l3-1zm51 6l-3-2-2 2 3 2c2 0 3-1 2-2zm-65-11l-2-2c-3 1-2 4 0 4s2-1 2-2zm-23-7c1-3 1-3-2-2-4 2-5 3-2 5 1 2 3 1 4-3zm66 10c2 1 3 1 3-1 0-1-1-2-3-2-1 1-3 0-4-1l-4-2c-3 0-3 0-2 1v2c-1 2 4 5 6 3h4zm13 1l-2-2v3c2 2 3 2 2-1zm-67-13c-1-1 0-2 1-3l1 2c0 4 2 4 5 1 1-1 2-2 3-1 2 3 7-1 8-5 0-4 0-4-6-5h-5l4 2 4 3c-4 2-9-1-9-4 0-1-1-1-1 1-1 4-1 4-6 3h-2c3 1 2 5-1 4l-2 2c0 2-1 3-2 2h-1c2 3 9 2 9-2zm81 13c0-2-1-2-2-2l-3 2 3 1c1 1 2 0 2-1zm-40-9l-2-2c-1 0-2 1-1 2l1 1 2-1zm11-2c2 1 3 1 2 2v2c3 0 3-3 1-4-2-3-9-2-8 1 0 2 1 2 1 1l4-2zm12 1c0-3 0-3-1-1-1 1-2 2-3 1l-2 1c0 1 1 2 3 2s3-1 3-3zm793 92c-3-1 0-6 3-5 3 0 6-4 5-6l-1 1-2 2v-2c2-4-11-4-15-1-2 2-2 2 0 3l3-2 5-1 4 1-3 3-6 2 2 3 5 3v-1zm34 4l-1-2-3 1c0 1 0 2 2 2l2-1zm-58-11c-2-3-4-1-3 1l3 1v-2zm29 6c1-1 0-3-1-3-2 0-2 2-2 3l1 1 2-1zm14 2h-3c-3 0-1 0 1 1 2 0 3 0 2-1zm-54-10c1 1 2 0 2-1 0-2-7-2-9 0h1l3 1c0 2 1 2 1 1l2-1zM77 105l-2-1c-1-1-2 0-4 2-2 3-2 3 1 1l5-2zm858 104l-4-3-3-3c-3-3-4-2-3 2 0 3 2 5 9 6 2 0 3 0 1-2zM63 102l-2-1h-1l1 2 2-1zm858 104l-2-1-1-3-1-2c-1 1 0 7 2 8l2-2zm-28-7l-2-2-2 3 2 1 2-2zm11 3c-3-2-10-3-10-2s2 2 5 2h5zm-16-7c-2-2-7-2-7 0l3 1 4-1zm-38-9l-1-1-2 1 1 3 2-3zm-81-17l-4-1-5 1h9zm27 3c2 0 2-1 1-1l-5 1c-3 1-1 2 4 0zm11 2c1-2-4-3-5-1l2 1h3zm8-1l-5 1c-1 1-1 1 3 1 2-1 3-1 2-2zm17 4h-4l2 1c2 0 3 0 2-1zm64 6c0-3-2-5-7-5l-5 1 5 1c3 0 4 0 4 2l1 2 2-1zM133 87l1-2-3 2-1 2 3-2zm8-1c0-1-1-2-2-1v2c2 2 4 1 2-1zm732 91l-2-2-2 2 1 1 3-1zm9 0l-1-2c-2 0-3 1-3 2l1 2c1 0 2 0 3-2zm-17-2c-2-3-8-3-7-2l5 2h2zm-11-4l-2-1h-2l-2 1c-1 1 0 2 3 2 4 0 5 0 3-2zM209 88l-1-1h-2l1 2 2-1zm8 0c0-2-4-2-5-1s0 2 2 2l3-1zm373 41l-1-2-3 1 2 2 2-1zm6 1c3-1 3-2 2-2l-5 1c-1 1-2 1-1 2l4-1zM180 74l-1-2-2 1 2 2 1-1zm4 0v-1c-1-1-2 0-2 1v1l2-1zm588 69c-1 0-2-1-2-3s-3-5-6-5c-4 1-2 4 2 3 2 0 3 0 2 2l-5 1h-4l7 3c4 0 7 0 6-1zM155 66c1-1 0-1-1-1-1-2-2 0-2 1-1 1 0 1 1 1 1 1 2 0 2-1zm333 35l-2-2c-3 0-3 0-1 1l3 1zm6-1l-3 1c-2 1-2 1 1 1l2-2zm5 2l-2-2-1 2 1 1 2-1zm-15-8l-5-2-6 1c2 3 9 3 11 1zm15 3l-3-1c-1 0-1 1 1 1h2zm227 25l-3-2-5 1 4 1h4zM515 88c2 0 2 0 1-2s-19-5-20-3l-1 1-1-2-1-1c-1-1-3 1-3 2 0 3 1 3 11 4l14 1zm19 2c3-1 3-1-1-2l-4 1c0 2 2 3 5 1zm-6-2c0-2-2-2-5-1-2 1-2 1 1 2l4-1zm124 13h-2c-2 0-1 0 0 1 2 0 3 0 2-1zm-37-7h-3l1 2 2-2zm-97-18c1-1 0-1-1-2l-2 2 2 1 1-1zm41 442l3-1 1-2 1 3c0 1-1 2-4 1-3 0-3 0-1-1zm81 8c6-2 9-1 9 1h-7c-5-1-6-1-2-1zm73 4l-2-2c1-1 3 0 4 1 3 3 3 3-2 1zm92 11l1-2h2c1 1 0 2-1 3l-2-1zm224 27l-3-2 4 1 5 2c1 2 0 2-6-1zM197 466h4c1 1 0 1-3 1l-1-1zm521 62l3-2c1 0 2 1 1 2l-1 3-3-3zm321 40l3-1c3 0 3 0 1 1-3 2-5 2-4 0zm-569-71l1-3c1-1 0-3-1-1l-3-2 4-2c4-1 5-1 5 2l1 2 2-4c1 0 2 2 1 4v2c1 0 2-1 2-4l1-2 3 2c2-1 2 0 1 3l-3 4c-3 2-12 1-14-1zm62 7c-2-2-22-4-28-4-4 1-12-3-11-5l10 1 9 2c5 1 7 0 7-1 0-2 1-2 7 0 3 2 4 1 7-2l6-2 4 1 5 1 4 2c2 1 2 1 2 4 1 4 0 6-2 5h-3c-3 1-16-1-17-2zm294 36c-2-1-4-2-5-1l-1-3c1-4 1-4 3-1l3 1c0-3 3-2 5 1 1 1 3 2 4 1 1 0 2 1 1 2 0 0 1 2 3 2 1 1 0 1-3 1l-10-3zm23 3c2-1 5 0 7 1h-4c-5 0-6-1-3-1zm-281-37c-3-3-3-4 0-4 4-1 6 2 4 5-1 2-2 2-4-1zm10 0c0-2 1-2 2 0s0 4-2 4v-4zm-436-53l-1-1-2-1c0-1 8-2 10-1v2c-1 2-7 2-7 1zm464 57c-4-2-3-2 4-2l4 2h-8zm-448-57h1l2 1-2 1-1-2zm425 52l-1-3c1-1 1 0 1 1l1 1c1-1 2 0 2 1 1 3-1 3-3 0zm42 7l4-2c3-1 3-1 5 1 1 2 0 2-3 1h-6zm-179-27h3l2 2h-3l-2-2zm69 8l3-2c0 2 0 3-2 3s-2 0-1-1zm507 62l-4-1 4-2 6 2c0 1 1 2 2 1 2-1 5-1 13 1 4 1-5 2-11 2l-10-3zm-381-51v-2c2 0 3 3 2 4l-2-2zm260 27l-4-1-4-2c0-1 2-2 5-2l4 2 2 1c1 0 2 0 1 1-1 2-3 3-4 2v-1zm40 4h3l-2 1c-2 1-2 1-1-1zm-289-37c-1-3-1-3 1-1 1 2 2 2 3 1 3-2 8-1 9 1 1 1 0 1-2 1h-7c-1 1-3-1-4-2zm283 35l1-1 2 2c1 1 0 1-1 1l-2-2zm-294-39c3-6 6-6 8-3 1 2 1 3-1 3l-1 2-4 2c-4-1-4-1-2-4zm55 4c-2-3-2-3 0-3 2 1 3 2 3 4 0 3 0 3-3-1zm213 27h3c1 1 0 1-2 1l-1-1zm48 5l2-1 1 1-2 2-1-2zm-275-36c-1-1 0-3 3-1 4 0 6 1 6 2-1 1-6 0-9-1zm295 34h3c3 1 3 2 0 2l-3-2zm-280-35h9c2 1 1 2-3 1l-6-1zm278 31h3l-2 1-1-1zm15 1c2-1 29 2 29 3h-15c-8-1-15-2-14-3zm-42-8c-1-1 0-1 1-1l5 1c3-2 3-2 0 0-4 3-5 3-6 0zm81 12l4-1 4 1-4 1-4-1zm-88-19h2c2 1 2 2 0 2l-2-2zM60 402c-1-1 0-3 2-3l4 2c1 1-4 2-6 1zm914 109l-2-1h-2c0-1 1-2 2-1 2 0 5 4 2 4v-2zM52 396c-1-2-4-3-5-3l-5-2c0-1 0-2 1-1l8 2c4 1 5 2 5 4 0 3 0 3-4 0zm891 111h4c1 1 0 1-2 1l-2-1zm14 1l4 1h-2c-2 0-3 0-2-1zm92 11c0-1 5-2 19-2 6 0 7 1 6 2-2 1-2 1 2 1 11-1 26 0 26 1 0 3-6 4-8 2l-6-2c-13 0-26 0-39-2zm-61-9c15-2 55 0 57 3 1 1-6 1-16-1h-18l-23-2zm-42-8l3 1h-3c-1 0-2 0 0-1zm4 0c-1-3 0-3 1-1 3 3 3 3 1 3l-2-2zm98 11c1-2 2-2 5 0 2 2 2 2-1 2l-4-2zM31 385h2c5 1 6 2 2 2l-4-2zm-9-3c1-2 1-3-2-2-3 0-6 0-6-2-1-3 0-3 19 0 14 3 16 4 17 6 0 2-9 1-16-2-6-3-6-3-7 0 0 1-1 2-3 2s-3-1-2-2zm62 4l-15-7c-5-1-7-2-7-3 0-2-1-3-3-4-6-4-2-2 9 2 10 4 12 4 11 2l2-2v-3c-3-5-1-6 2-3 2 4 4 5 6 2 1-3 2-3 3-2l3-1c0-3 2-1 4 5 1 3 3 6 5 6l2 4c0 2 0 2-6-1-7-4-12-3-7 1 1 2 2 4 1 6-1 3-1 3-10-2zm65 8h2c2 1 1 2-1 2s-2-1-1-2zm-38-7l1-2 2 2v2l-3-2zm782 96c-1-2-1-2 2-2h7l3 2c0 2-1 2-3 2l-1-1c0-1-1-2-3-1h-5zM47 378c-3 0-5-2-6-3s8 1 11 3c2 2 2 2 0 2l-5-2zm930 113h4c1 3 1 3-2 3-3-1-3-1-2-3zm31 6l3-3c4-1 4-1 2 1l-5 2zM30 374c-5-1-6-2-4-3 4-3 9-3 11 1 4 3 1 4-7 2zm104 12h3c2 1 0 1-2 1-2-1-3-1-1-1zm883 108l-3-4-2-2c2-2 9 1 11 3 3 3 3 3-2 4l-4-1zM210 391l-1-2h1c2 0 3 4 1 4-1 0-2-1-1-2zm-12-4c-1-1-1-2 2-2 1-1 2 0 2 1 0 3 0 3-4 1zm-8-4c-3-2-3-2 0-2l3 2c1 2 1 2-3 0zM23 360c-3-2-3-2 0-6 4-3 9-2 7 2-2 2 0 3 6 3 1 0 4 1 5 3 2 2 2 2-6 1l-12-3zm20-3c0-2 1-3 1-1l-1 4v-3zm5 4l3-2c3-2 3-2 0 1-2 2-3 2-3 1zm1006 118c0-1 1-3 3-2l1 3c0 2 1 2 7 2 10-1 41 2 38 3-1 1 0 1 4 2 3 0 5 1 5 2l-30-3-28-3v-4zM52 350h1c3 1 3 2 1 2l-2-2zm1014 123l2-1v1l-2 2v-2zm5 1l4 1h-2l-2-1zm13 0l6 1h-2l-4-1zm-21-9l2-1v1l-1 2-1-2zm6-6c-3-1-5-2-3-2 3 0 8 1 9 3l1 2-7-3zm28 4l3 1h-3c-1 0-2 0 0-1zm12 1h4l5 1h-5c-2 1-4 0-4-1zm-24-5l3-1 1-1c0-1 0-2 2-2s2 1 0 3c-2 4-6 5-6 1zm36 1c-1-1 0-1 1-1l1 3-1 1-1-3zm-18-3l-7-3h8c0-2 1-2 2 0l2 2c4 0 7 1 6 2l-3 1-8-2zm24-1l3-1 3 1-3 1-3-1zm38-27c0-2-1-2-4-2l-6-2h-2c0 2-7 1-8-1 0-2 8-1 12 0l3 1 12 1c0 1-2 2-3 1l-3 2h-1zm8-1c0-2 2-3 7-2 3 0 4 1 3 2l-4-1-5 1c-1 2-1 2-1 0zM18 285l1-2 9 2c-4 2-11 2-10 0zm19-2c3-2 12-2 11-1 0 1-6 3-10 2l-1-1zm1134 133c-1-1 1-1 2-1l3 1c0 1-1 2-2 1l-3-1zm-2-6h3c1 1 1 1-2 1l-1-1zm-13-3l-5-3c0-1 11 1 14 3 2 2 0 2-9 0zm-19-6c-4-2-5-3-3-4l16 6-13-2zm4-8c0-1 1-2 2-1l6-1c3 0 3 0 0 2-5 2-9 2-8 0zM36 256l3 1h-2c-2 0-2 0-1-1zm1094 129c3-1 3-1-1-1-3 0-4 0-3-1s-1-1-3-1c-4 1-5 0-3-3 2-4 5-5 6-3 0 1 1 2 2 1l5 1c2 2 2 2-1 1h-5c-1 1 1 2 5 2l7 1-3-4c-2-2-2-4-1-4l2 2c0 2 1 1 3 0 2-2 3-2 3-1l2 2h3c-3-2 16 2 18 5 3 3 8 3 8-1 1-3 1-3 1 0 1 5 4 7 4 3 1-2 2-3 4-3 3 1 3 1 1 2l-1 4c1 2 1 3-1 4l-2-1c0-1-9-2-11-1-1 1-2 0-1-1 1-2-6-3-22-4-6 0-6 0-3 2 5 1 5 1-1 1h-10c-4 0-5-1-2-2zm12-7c0-2-1-1-1 0 0 2 0 3 1 2v-2zm20 4c2-1 1-2-1-2l-4 1c0 2 1 2 5 1zm-11 6c-3-2-3-2 0-1l4 1-1 2-3-2zm44 6h3l-2 1-1-1zm-9-4c1-4 2-4 9-4 4 0 6 1 4 2h-4c-1-1-3 0-5 1-3 2-4 3-4 1zm3 1l3-1 2 1-2 1-3-1zM40 243l2-1 1 2-2 1-1-2zm1078 127h3c3 2 3 3-1 2-2 0-4-1-2-2zm11 2c0-1 1-2 2-1l1 1-1 1-2-1zm25-1l-9-3-4-1-1-4c0-4 3-3 3 1 1 2 1 3 2 2l3-1c3 2 12 5 12 2l8 1 9 5 3 2 2-1 3-2c1 1 2 1 1 2 0 1 0 2 2 2l-15-1-19-4zM32 232c1 1 0 1-2 1-2-1 1-1 2-1zm1100 132l-3-3c-5-2-3-3 3-3l7 1-4 3-3 2zm-29-10c0-2 0-3 1-2l-1 4v-2zm59 6c-1-2 4-2 7 0 1 1 0 2-2 2-3 0-5-1-5-2zm-18-5c1-1 2 0 4 1 1 1 1 2-3 1-2 0-2-1-1-2zM4 201l-4-2 5-1c5-2 9 0 7 3-1 2-2 2-8 0zm1130 133c-2-1-1-1 2-1l7 2c2 2-5 1-9-1zm-30-5h2l2 2h-2l-2-2zm24 3c0-1 1-2 2-1l1 1-2 2-1-2zm-33-5l2-3 1 2-2 2-1-1zm-21-9c-2-1-2-2 0-1l3 1c1 2 1 2-3 0zm35 2c-1-3 1-3 6-4 5 0 5 0 4 2-3 1-4 2-5 1l-3 1h-2zM6 181c10-3 15-3 12-1l-8 2-9 1 5-2zm1069 133l3-1 2 2h-3l-2-1zm25 2c-2-2-2-3 0-2l3 2c2 2 0 3-3 0zm23 3v-1l3 2c0 2 0 1-3-1zm-31-6h3l-2 1c-2 0-3-1-1-1zm-34-7c-3-1-3-2 0-2 4-1 17 0 17 1l1 2c1 0 2-1 1-2l2-1c3 0 6 6 4 7-1 1-4 0-7-1-7-4-12-5-15-4h-3zm27 5l2-4c1-2 6-1 6 0l-3 2-3 2h-2zm-39-8l-6-1c-3 0-5 0-4-2h-4c-3 0-3 0-1-1 4-2 15 0 16 2 1 3 0 5-1 2zm49 7c-1-1 0-3 2-1l2 1-2 2-2-2zm9 1c-1-1 2-1 4-1l6 2c1 1-1 1-4 1l-6-2zm4-6c-1-1 0-2 1-1 3 1 3 5 1 5l-2-4zm-90-11l3-1c2 0 3 1 3 2l-3 2-3-3zm57 7c-1-1 0-1 2-1 3 2 4 3 1 2l-3-1zm18-1h-5c-4 0-5-3-3-6 3-1 3-2 3 0l2 1c1-1 1 0 1 1-1 1 0 2 2 2l3 2v1l-3-1zm-44-9l2-2c1-1 2 0 1 1l-1 3-2-2zm20-4l3-1 2 1-2 1-3-1zm-86-13l-3-3c-4-1-4-1-1-2 4-1 6 1 5 5-1 2-1 2-1 0zm107 13l-1-2-1 1c-1 1-3 2-5 1l-4-1 3-1h3l-6-3-6-2-7-3-6-2c-2-2 3-5 5-4s2 1 0 1c-4 0-2 3 3 4 4 1 6 0 6-1h4l7 2h2c-4 1-3 4 2 4l6 2c1 1 2 1 2-1 1-1 0-2-1-4h1c3 0 3 2 3 4-1 2 0 2 4 3l17 4c-2 0-2 0 0 2 4 4 0 3-6-1-1-1-3-2-4-1l-3 1 1-1 1-1c-1-1-3 0-3 1-1 1-11-1-13-3l-2 1 2 2c1 1 0 1-2 1-3 0-3-1-2-3zM29 155c-2-3-2-3 0-1 2 1 4 1 10-1l6-1 3 2c3 0 3 0 0 1-3 2-6 3-8 2l-6 1c-3 0-4 0-5-3zm940 113v-1l2 1-1 2-1-2zm4 1l2-2v2l-1 1-1-1zm85 11c0-2 1-3 2-2v2l-2 1v-1zm-117-16l-3-3 3 1 3 3-3-1zm21 2l4 1-3 1-1-1v-1zm-50-8l-11-2c-4 1-8-1-7-3l7 1c6 1 7 1 8-1 1-3 1-3 1 0 0 1 2 3 6 4s6 2 4 3l-8-2zm36 5h4c4 1 4 2-1 2-2-1-4-1-3-2zm15-1l3-2 1 2-2 1-2-1zm91 9l1-3c3 0 4 3 2 4-2 2-2 1-3-1zm-123-17l3-2c1 0 2 1 1 2s0 1 4 1 5 0 3 1c-4 2-10 1-11-2zm14-2l3 1h-2c-2 0-2 0-1-1zM60 136c0-2 2-3 3-3 3 1 3 1 1 3l-4 2v-2zm943 117l2-2c1 1 2 1 1 2 0 1 0 2-1 1l-2-1zm43 1l3-1 2 1-3 1-2-1zM48 118c0-1 1-2 2-1l1 1-1 1-2-1zm1014 125h3l-2 1-1-1zm-19-5l1-2 1 2c0 2-1 3-2 0zm-26-13c0-3 0-3-7-3-8-1-11-3-8-8 1-1 1-1 1 1 0 3 1 4 8 4 6 1 9 2 9 4 1 3 1 4-1 3-1-1-2 0-2 1v-2zm44 1c-1-1 0-2 1-3 3 0 5 3 3 4l-1-1c1-2 0-2-1-1-1 2-2 2-2 1zm-33-6c-2 0-5-2-6-4h-4c-2 3-7 0-6-2s10-1 10 1l8 3 6 2h-8zm21 3c0-1 1-2 2-1l3 1c-2 2-4 1-5 0zm-92-23c-2-1-2-2 1-1l2 1c-1 2-1 2-3 0zm-21-4l-2-2 2-1h4c0-1 1-1 3 1h3c-1 2-6 4-10 2zm142 17l-8-2 9 1 10 2-1 1-10-2zm-95-14c1-1-1-2-5-3-5 0-6-1-4-2l3-1 4 2 5 3c1 2 0 2-1 2l-2-1zm-33-6l-6-2-5-2c1-3 9 0 12 3 2 1 2 1 0 2l-1-1zm10 1l-3-1h-3l4-2c2 1 4 1 3 3 0 2 0 3-1 0zm5 1c0-1 1-2 3-1 3 0 4 1 0 2l-3-1zm-120-34c0-1 1-2 3-1 3 1 3 1 1 2-3 2-4 1-4-1zM222 80l5-1 5 2-7 1c-3 0-4-1-3-2zm-21-6l2-4v4l-1 4-1-4zm63 8h3l4 2c-1 1-7 0-7-2zm560 69l7-1c4 0 6 0 5 1h-12zm-41-10c-4-2-4-2 0-3l6 3c2 3 0 3-6 0zm-8-4l2-1v2l-1 1-1-2zM195 63c-1-3 1-5 6-5 3 1 3 2 3 3v2c4 2 0 3-4 3l-5-3zm15 4c-2-1-2-2-1-5s4-3 3 1c0 4 2 5 3 2h3v3c-3 1-4 1-8-1zm114 14l7-1 6 1c-1 2-13 1-13 0zm-90-13c-8-2-6-2 8-1l8-1 5 2 4 3-25-3zm32 1c0-2 1-3 4-2 2 1 4 2 4 4l-4 1c-3 0-4-1-4-3zm19 2c-2-1-1-2 3-1l7 2c1 2-8 1-10-1zm91 8c-1-1 1-5 4-4l1 1c-1 1 0 2 2 2 1 0 1 1-2 1-3 2-4 2-5 0zM267 63l-2-1-3-1-10-5c-5-2-9-5-8-6 0-1-1-2-3-2l-2-2c0-1-2-2-8-3-11 0-13-3-5-3 4 0 5-1 7-5 0-3 2-5 3-5v1l3 4c3 1 3 1-1 1-4-1-7 2-3 2v2l1 2 2-2c0-2 1-2 3-1s4 2 5 1c1 0 2 0 2 2 1 1 2 2 6 1h4l25 4c27 4 30 4 32 6l4 1c1-1 6 0 10 1l7 2-3 2-5 3h-11c-13 1-26 2-40 1-1-1-3 0-5 2-3 1-4 0-5-2zm71 10l4-1h6c0 1 1 2 3 1 3 0 3 0 2 1l-9 1-6-2zm51 6c-4-1-4-5 0-4l4 2 2-1c1-1 2-1 4 1s2 2-1 3-4 1-9-1zm263 32l1-1 1 1-2 2v-2zm-11-3l3-1c1 0 2 1 1 2l-3 1-1-2zm29-4c-1-1 0-1 1-1l1 1-1 2-1-2zm33 3l-3-5-2-2v-2c2-1 3 0 3 3 0 2 2 5 4 6l2 3-4-3zM143 37c0-1 0-2 1-1 0 0 2 0 3-3s2-3 2-1l-3 6c-2 1-3 1-3-1zm605 75c-2-1-1-2 3-2l-4-1c-4-1-7-2-6-3 0-3 2-4 5-2 5 3 9 4 17 5 5 1 7 2 6 3l-8-1h-6c0 2-4 3-7 1zM367 63l-4-1c-2 1-3 0-2-1h16l24-1c20 1 21 1 21 5 0 1-2 2-7 1-27-3-38-3-40-1-3 2-7 1-8-2zm-21-4l-3-1-3-1 5-1c6 1 9 3 4 4l-3-1zm282 35l3-1c2 3 1 4-2 3l-1-2zM105 29l6-3 4-2-3 3c-3 3-7 4-7 2zm26 2c0-3 3-5 4-3 1 0 0 2-2 3-2 2-3 2-2 0zm78 10l3-1 4-1c3-1 4 0 3 2l-6 1-4-1zm214 22c0-1 1-2 6-1l6 3h2c2-3 2-3 4 0 1 2 1 2-2 2l-16-4zM102 23l7-3c0-2 1-2 1-1l5-2c2-2 4-2 4-1-1 2-10 8-14 8h-5l2-1zm92 9l23-2c7 0 9 2 3 3-5 2-27 0-26-1zm-76-10l5-4c3-2 4-2 2-3l-3-1c0-2 10-5 12-4V9c0-2 0-2 2-1h4V7h-3l4-2h3c-2 2 0 3 2 1l3-1h2l12-1 13-2h13l-3 3-13 1-2 1c0 1-1 2-5 1l-4 1-3 1c-1-1-2-1-4 1-3 2-6 2-4-1l-2 1c-1 2-3 2-4 1l-2 1-3 1c-1-1-4-1-5 1h-4l-3 1 2 2-6 3-6 1zm152 19l1-2c3-1 4 1 2 3-1 1-2 0-3-1zm-43-8l3-2c2 0 2 1 1 2l-3 3-1-3zm17 3c1-3 4-3 8-1 3 0 2 1-2 2l-6-1zm286 34c-1-1 0-2 2-3 4-2 4-2 9 1 3 2 5 2 5 1 1-1 2-1 3 1l1 3-2-1-1-1c-1 2-17 1-17-1zM154 22l4-1 4-1 7-1 4-1 30-2 16-1h7c5 1 7 0 7-1 0-2 1-2 6 1l11 2 24 3-4 1h-85l-13 1c-5-1-10 0-11 1-4 1-9 1-7-1zm279 34c-2 0-3-1-3-2 0-2 4-2 7 0 4 3 2 4-4 2zM216 9l11-2 11-1c3-2 13-2 13 0l-2 1h-1c0 1-2 2-4 1l-5 1-8 1h-13c-4 1-5 1-2-1zm42-3c-2-2-1-2 3-2 2 0 4 0 5-3 1-2 1-2 3 1s3 3 4 2h3c-1 2-5 3-10 2l-5 1-3-1zm28 0l3 1h-2c-2 0-2 0-1-1z" fill="#12003D"/><path d="M867 90H378c-9 0-16 8-16 17v300c0 9 7 16 16 16h489c9 0 16-7 16-16V107c0-9-7-17-16-17z" fill="#fff"/><path d="M867 424H378a17 17 0 01-18-17V107a18 18 0 0118-18h489a18 18 0 0117 18v300a17 17 0 01-17 17zM378 91a15 15 0 00-15 16v300a15 15 0 0015 15h489a15 15 0 0015-15V107a15 15 0 00-15-16H378z" fill="#12003D"/><path d="M883 371H362a1 1 0 110-2h521a1 1 0 110 2z" fill="#12003D"/><path d="M689 488H556l24-65h84l25 65z" fill="#fff"/><path d="M689 489H556a1 1 0 01-2 0 1 1 0 010-1v-1l25-64a1 1 0 011-1h84a1 1 0 011 1l25 64a1 1 0 010 1 1 1 0 01-1 1zm-132-3h130l-20-52-97 20-13 32z" fill="#12003D"/><path d="M704 484H540c-4 0-8 3-8 8v1c0 5 4 8 8 8h164c5 0 8-3 8-8v-1c0-5-3-8-8-8z" fill="#fff"/><path d="M704 502H540a9 9 0 01-9-9v-1a9 9 0 019-9h164a9 9 0 019 9v1a9 9 0 01-9 9zm-164-17a7 7 0 00-7 7v1a7 7 0 007 7h164a7 7 0 007-7v-1a7 7 0 00-7-7H540z" fill="#12003D"/><path d="M864 106H380v244h484V106z" fill="#F16529"/><path d="M436 233v-9l35-24 6 11-26 17 26 18-6 11-35-24zm52-41h14v29h29v-29h14v73h-14v-30h-29v30h-14v-73zm89 14h-23v-14h60v14h-23v59h-14v-59zm45-14h16l23 51 23-51h16v73h-14v-48l-22 48h-6l-22-48v48h-14v-73zm91 0h14v59h33v14h-47v-73zm54 54l27-18-27-17 6-11 36 24v9l-36 24-6-11zM903 568s9-4 10-21c0-17-18-35-30-44-11-8-33-8-41 1s-15 24 4 46c20 23 46 24 57 18z" fill="#fff"/><path d="M888 572c-13 0-29-5-43-21-15-17-16-33-4-48 8-9 31-9 43-1 5 4 31 24 30 45 0 17-9 21-10 22-5 2-10 3-16 3zm-26-74c-8 0-15 3-19 7-12 13-10 28 4 45 20 22 45 23 56 16 0 0 8-3 9-19 0-15-16-33-29-43-6-4-14-6-21-6z" fill="#12003D"/><path d="M837 537a32 32 0 0124-28c22-6 28-1 28-1" fill="#fff"/><path d="M837 538a1 1 0 01-1-1 33 33 0 0125-29c22-6 29-1 29-1a1 1 0 011 1 1 1 0 01-1 1 1 1 0 01-1 0s-7-4-28 1a31 31 0 00-23 27 1 1 0 01-1 1z" fill="#12003D"/><path d="M806 589H438l43-75h282l43 75z" fill="#fff"/><path d="M806 590H438a1 1 0 01-1-1v-1l43-74a1 1 0 011-1h282a1 1 0 011 1l43 74a1 1 0 010 1 1 1 0 01-1 1zm-366-2h364l-42-73H482l-42 73z" fill="#12003D"/><path d="M506 545h-25a1 1 0 01-1 0 1 1 0 01-1-1 1 1 0 011-1l5-9a1 1 0 011-1h25a1 1 0 011 0 1 1 0 011 2h-1l-4 9a1 1 0 01-1 2 1 1 0 01-1-1zm-23-2h23l3-8h-22l-4 8zm60 2h-25a1 1 0 01-1 0 1 1 0 01-1-1 1 1 0 011-1l4-9a1 1 0 011-1h24a1 1 0 011 0 1 1 0 010 1l-3 10a1 1 0 01-1 1zm-23-2h22l2-8h-22l-2 8zm60 2h-25a1 1 0 01-1 0 1 1 0 010-1l2-10a1 1 0 011-1h24a1 1 0 011 1l-1 10a1 1 0 01-1 1zm-24-2h23l1-8h-22l-2 8zm60 2h-25a1 1 0 01-1 0 1 1 0 010-1l1-10a1 1 0 011-1h25a1 1 0 011 1v10a1 1 0 01-1 2 1 1 0 01-1-1zm-23-2h22v-8h-22v8zm60 2h-25a1 1 0 01-1-1v-11h25a1 1 0 011 1l1 10a1 1 0 01-1 1zm-24-2h23l-1-8h-22v8zm61 2h-25a1 1 0 01-1-1l-2-10a1 1 0 011-1h24a1 1 0 011 1l3 10a1 1 0 010 1h-1zm-24-2h22l-1-8h-22l1 8zm60 2h-25a1 1 0 01-1-1l-3-10a1 1 0 010-1 1 1 0 011 0h25a1 1 0 011 1l4 9a1 1 0 11-1 2 1 1 0 01-1 0zm-24-2h23l-3-8h-22l2 8zm61 2h-25a1 1 0 01-1-1l-4-9a1 1 0 01-1-1 1 1 0 011-1 1 1 0 011 0h24a1 1 0 011 1l5 9a1 1 0 110 2 1 1 0 01-1 0zm-24-2h22l-4-8h-21l3 8zm-212 18h-25a1 1 0 01-1-1 1 1 0 010-1l5-11a1 1 0 011 0h24a1 1 0 011 0 1 1 0 010 1l-3 11a1 1 0 010 1 1 1 0 01-1 1 1 1 0 01-1-1zm-23-2h23l2-9h-21l-4 9zm-10 2h-21a1 1 0 01-1-1 1 1 0 010-1l6-11a1 1 0 011 0h20a1 1 0 011 0 1 1 0 010 1l-5 11a1 1 0 01-1 1zm-19-2h18l4-9h-18l-4 9zm89 2h-25a1 1 0 01-1-2l3-10a1 1 0 011-1h24a1 1 0 011 1l-2 11a1 1 0 01-1 1zm-24-2h23l2-9h-22l-3 9zm60 2h-25a1 1 0 01-1 0 1 1 0 010-1l2-11a1 1 0 011-1h24a1 1 0 011 0 1 1 0 011 1l-1 11a1 1 0 01-1 2 1 1 0 01-1-1zm-23-2h22l1-9h-22l-1 9zm60 2h-25a1 1 0 01-1 0 1 1 0 010-1v-11a1 1 0 011-1h24a1 1 0 011-1 1 1 0 011 1 1 1 0 010 1v11a1 1 0 010 1 1 1 0 01-1 0zm-24-2h23l-1-9h-22v9zm61 2h-25a1 1 0 01-2-1l-1-11a1 1 0 011-1 1 1 0 011 0h24a1 1 0 011 1l2 11a1 1 0 010 1 1 1 0 01-1 0zm-24-2h22l-1-9h-22l1 9zm60 2h-25a1 1 0 01-1-1l-2-11a1 1 0 011-1h24a1 1 0 011 0l3 11a1 1 0 010 1 1 1 0 01-1 1zm-24-2h23l-3-9h-22l2 9zm61 2h-25a1 1 0 01-1-1l-4-11a1 1 0 010-1 1 1 0 011 0h24a1 1 0 011 0l5 11a1 1 0 010 1 1 1 0 01-1 1zm-25-2h23l-4-9h-21l2 9zm49 2h-16a1 1 0 01-1-1l-5-11a1 1 0 010-1 1 1 0 011 0h16a1 1 0 011 0l5 11a1 1 0 110 2h-1zm-16-2h14l-4-9h-13l3 9zm-218-28h-23a1 1 0 01-1 0 1 1 0 010-1l4-9a1 1 0 011-1h22a1 1 0 011 1 1 1 0 010 1l-3 9a1 1 0 01-1 0zm-21-2h20l2-6h-19l-3 6zm-9 2h-19a1 1 0 01-1 0 1 1 0 010-1l5-9a1 1 0 011-1h18a1 1 0 011 1 1 1 0 010 1l-4 9a1 1 0 01-1 0zm-17-2h17l2-6h-15l-4 6zm80 2h-23a1 1 0 01-1 0 1 1 0 010-1l3-9a1 1 0 011-1h22a1 1 0 011 1 1 1 0 010 1l-2 9a1 1 0 01-1 0zm-21-2h20l1-6h-19l-2 6zm54 2h-23a1 1 0 01-1-1l1-9a1 1 0 112-1h21a1 1 0 012 2l-1 8a1 1 0 01-1 1zm-21-2h20v-6h-19l-1 6zm54 2h-23a1 1 0 01-1 0v-10a1 1 0 011-1h22a1 1 0 011 1l1 9a1 1 0 01-1 1zm-22-2h20v-6h-20v6zm54 2h-22a1 1 0 01-1-1l-1-8a1 1 0 111-2h22a1 1 0 011 1l2 9a1 1 0 01-1 1 1 1 0 01-1 0zm-21-2h20l-1-6h-20l1 6zm54 2h-22a1 1 0 01-1 0l-2-9a1 1 0 010-1 1 1 0 011-1h22a1 1 0 011 1l2 9a1 1 0 010 1 1 1 0 01-1 0zm-21-2h20l-2-6h-20l2 6zm54 2h-22a1 1 0 01-1 0l-4-9a1 1 0 011-1 1 1 0 011-1h21a1 1 0 011 1l4 9a1 1 0 010 1 1 1 0 01-1 0zm-22-2h20l-3-6h-19l2 6zm44 2h-15a1 1 0 01-1 0l-4-9a1 1 0 111-2h14a1 1 0 012 0 1 1 0 010 1l4 9a1 1 0 010 1 1 1 0 01-1 0zm-14-2h12l-3-6h-12l3 6zm-250 50h-28a1 1 0 01-1-1 1 1 0 010-1l6-12a1 1 0 011-1h27a1 1 0 011 1 1 1 0 010 1l-5 12a1 1 0 01-1 1zm-26-3h26l4-10h-25l-5 10zm67 3h-28a1 1 0 01-1-1 1 1 0 010-1l5-12a1 1 0 011-1h27a1 1 0 011 1 1 1 0 010 1l-4 12a1 1 0 01-1 1zm-26-3h25l3-10h-24l-4 10zm151 3H546a1 1 0 01-1-1 1 1 0 010-1l3-12a1 1 0 011-1h108a1 1 0 011 1l2 12a1 1 0 01-1 1 1 1 0 01-1 1zm-110-3h109l-1-10H550l-2 10zm150 3h-28a1 1 0 01-1-1l-2-13a1 1 0 011-1h27a1 1 0 011 1l3 12a1 1 0 010 1 1 1 0 01-1 1zm-27-3h26l-3-10h-25l2 10zm68 3h-28a1 1 0 01-1-1l-4-12a1 1 0 010-1 1 1 0 011-1h28a1 1 0 011 1l4 12a1 1 0 010 1 1 1 0 01-1 1zm-27-3h26l-4-10h-25l3 10zm68 3h-28a1 1 0 01-1-1l-5-12a1 1 0 010-1 1 1 0 011-1h27a1 1 0 011 1l6 12a1 1 0 010 1 1 1 0 01-1 1zm-27-3h26l-6-10h-24l4 10zM806 589H438v9h368v-9z" fill="#12003D"/><path d="M806 599H438a1 1 0 01-1-1v-9a1 1 0 011-1h368a1 1 0 011 1v9a1 1 0 01-1 1zm-366-2h365v-7H440v7z" fill="#12003D"/><path d="M869 506s-5-9-14-9l14 9z" fill="#fff"/><path d="M869 507a1 1 0 01-1 0s-5-9-13-9a1 1 0 01-1-2h1c9 0 15 9 15 10a1 1 0 01-1 1z" fill="#12003D"/><path d="M487 297H261v159h226V297z" fill="#fff"/><path d="M487 457H261a1 1 0 01-1-1V296a1 1 0 011-1h226a1 1 0 011 1v160a1 1 0 01-1 1zm-225-2h224V298H262v157z" fill="#12003D"/><path d="M487 313H261a1 1 0 11-1-2l1-1h226a2 2 0 011 3h-1z" fill="#12003D"/><path d="M308 325h-27a1 1 0 01-2-1l1-1h28a1 1 0 111 2h-1zM315 340h-28a1 1 0 01-1-1 1 1 0 111-2h28a2 2 0 011 3h-1zm1 14h-22a1 1 0 01-1-1l1-1h22a1 1 0 011 1 1 1 0 01-1 1zM328 368h-28a1 1 0 01-2-1l1-1h29a1 1 0 110 2zM321 383h-28a2 2 0 01-1-1 1 1 0 011-2h28a2 2 0 011 3h-1zM302 397h-9a1 1 0 01-1-1l1-1h9a1 1 0 012 1 1 1 0 01-1 1h-1zM308 411h-15a1 1 0 01-1-1l1-1h15a1 1 0 110 2zM301 426h-15a1 1 0 11-1-2 1 1 0 011-1h15a2 2 0 011 3h-1zM314 440h-28a1 1 0 01-1-1l1-1h28a1 1 0 011 2h-1zM353 440h-20a1 1 0 01-1-1l1-1h20a1 1 0 011 2h-1z" fill="#F16529" fill-opacity=".3"/><path d="M378 325h-55a1 1 0 01-1-1l1-1h55a1 1 0 110 2zm17 15h-55a1 1 0 01-1 1 1 1 0 01-1-2 1 1 0 112-2h55a1 1 0 011 2h-1v1zM404 354h-68a1 1 0 110-2h68a1 1 0 012 1 1 1 0 11-2 1zM419 368h-82a1 1 0 01-2-1l1-1h83a1 1 0 110 2zM376 383h-45a1 1 0 01-1 0 1 1 0 01-1-1 1 1 0 011-1 1 1 0 011-1h45a2 2 0 011 3h-1zm61 0h-45a1 1 0 01-1 0 1 1 0 01-1-1 1 1 0 011-1 1 1 0 011-1h45a2 2 0 011 3h-1zM376 397h-57a1 1 0 01-1 0 1 1 0 010-2h58a1 1 0 011 1 1 1 0 01-1 1zm22 0h-16a1 1 0 110-2h16a1 1 0 011 1 1 1 0 01-1 1zM389 411h-67a1 1 0 01-1-1l1-1h67a1 1 0 011 0 1 1 0 011 0 1 1 0 010 1 1 1 0 010 1 1 1 0 010 1 1 1 0 01-1 0 1 1 0 01-1-1zm35 0h-28a1 1 0 01-1 0 1 1 0 010-2h29a1 1 0 011 2h-1zM382 426h-64a2 2 0 01-1-2l1-1h64a2 2 0 011 3h-1zM467 368h-37a1 1 0 01-2-1l1-1h38a1 1 0 012 2h-2zm-56-42h-19a1 1 0 01-1 1 1 1 0 010-3 1 1 0 012-1h62a1 1 0 011 1 1 1 0 011 1 1 1 0 01-2 1h-44zm6 100h-28a2 2 0 01-1-2l1-1h28a2 2 0 011 3h-1zM410 440h-49a1 1 0 01-2-1l1-1h50a1 1 0 011 1 1 1 0 01-1 1z" fill="#F16529"/><path d="M940 120h-97v86h97v-86z" fill="#fff"/><path d="M940 207h-97a1 1 0 01-1-1v-86a1 1 0 010-2 1 1 0 011 0h97a1 1 0 011 2v86a1 1 0 01-1 1zm-96-2h95v-84h-95v84z" fill="#12003D"/><path d="M940 132h-97a1 1 0 01-1-2h98a1 1 0 011 1l-1 1z" fill="#12003D"/><path d="M857 169v-4l17-10 3 4-13 8 13 7-3 5-17-10zm22 14l21-35 3 3-20 34-4-2zm27-9l13-7-13-8 3-4 17 10v4l-17 10-3-5z" fill="#F16529"/><path d="M466 50H323v94h143V50z" fill="#fff"/><path d="M466 145H323a1 1 0 01-1-1V50a1 1 0 011-1h143a1 1 0 011 1v94a1 1 0 01-1 1zm-142-2h141V51H324v92z" fill="#12003D"/><path d="M466 61H323a2 2 0 01-1-2 1 1 0 011-1h143a2 2 0 011 2l-1 1z" fill="#12003D"/><path d="M353 68h-17a1 1 0 110-2h17a1 1 0 110 2zm44 0h-35a1 1 0 110-2h35a1 1 0 110 2zm11 11h-35a1 1 0 01-2-1 1 1 0 112-2h35a2 2 0 012 1 1 1 0 01-2 2zm-51 0h-17a2 2 0 01-1-2 1 1 0 011-1h17a1 1 0 012 1l-1 1a1 1 0 01-1 1zm1 10h-14a1 1 0 110-2h14a1 1 0 110 2zm56 0h-44a1 1 0 110-2h44a1 1 0 110 2zm-49 11h-17a1 1 0 110-2h17a1 1 0 110 2zm58 0h-52a1 1 0 110-2h52a1 1 0 110 2zm-62 11h-18a1 1 0 01-1-2h19a1 1 0 111 2h-1zm35 0h-29a1 1 0 01-1-2h30a1 1 0 011 2h-1zM349 122h-6a2 2 0 01-1-3h7a2 2 0 011 2l-1 1zm47 0h-36a1 1 0 01-2-2 1 1 0 112-1h36a2 2 0 011 2l-1 1zM353 132h-10a1 1 0 01-1-2h11a1 1 0 011 1l-1 1zm51 0h-42a1 1 0 01-1-2h43a1 1 0 011 1l-1 1z" fill="#F16529"/><path d="M434 111h-28a1 1 0 01-1-2h29a1 1 0 011 2h-1zM414 122h-10a2 2 0 01-1-3h11a1 1 0 012 1 1 1 0 11-2 2zM431 132h-18a1 1 0 01-1-2h19a1 1 0 011 1l-1 1zm23-32h-24a1 1 0 110-2h24a1 1 0 110 2zm-36-32h-12a1 1 0 110-2h40a1 1 0 110 2h-28z" fill="#F16529" fill-opacity=".3"/></svg>